<?xml version="1.0" standalone="no"?>
<!DOCTYPE svg PUBLIC "-//W3C//DTD SVG 20010904//EN"
 "http://www.w3.org/TR/2001/REC-SVG-20010904/DTD/svg10.dtd">
<svg version="1.0" xmlns="http://www.w3.org/2000/svg"
 width="850.000000pt" height="850.000000pt" viewBox="0 0 850.000000 850.000000"
 preserveAspectRatio="xMidYMid meet">
<metadata>
Created by potrace 1.14, written by Peter Selinger 2001-2017
</metadata>
<g transform="translate(0.000000,850.000000) scale(0.100000,-0.100000)"
fill="#000000" stroke="none">
<path d="M1460 7844 c0 -64 2 -74 18 -75 9 0 178 0 375 -1 l357 0 0 -3588 0
-3589 -375 2 -376 2 3 -75 3 -75 1333 0 c734 0 1337 2 1341 5 3 3 7 35 7 73
l0 67 -61 1 c-33 0 -202 1 -375 2 l-315 2 0 1830 c0 1621 1 1831 15 1836 34
14 54 -9 152 -175 55 -94 153 -259 217 -366 64 -107 121 -204 127 -215 5 -11
41 -72 79 -135 37 -63 207 -351 378 -640 170 -289 359 -608 420 -710 60 -102
118 -201 129 -220 11 -19 42 -71 68 -115 26 -44 100 -170 165 -280 65 -110
153 -258 195 -330 198 -333 280 -474 280 -478 0 -3 -143 -5 -317 -6 -175 0
-339 0 -365 0 l-47 -1 0 -69 c0 -44 5 -71 12 -73 10 -4 2689 -3 2710 1 4 0 6
33 5 71 l-2 70 -36 1 c-19 0 -132 0 -251 0 l-216 0 -99 166 c-55 91 -106 177
-114 192 -9 14 -59 99 -113 188 -53 90 -105 176 -115 193 -9 16 -82 139 -162
271 -80 133 -156 260 -168 283 -13 22 -36 61 -52 86 -15 25 -209 349 -430 720
-222 371 -437 731 -478 800 -42 69 -80 134 -86 145 -6 11 -19 31 -27 45 -9 14
-164 273 -344 575 -180 303 -337 566 -350 585 -32 51 -275 461 -278 469 -2 7
28 49 263 366 69 94 164 222 210 285 47 63 108 145 135 181 28 37 58 78 67 91
33 45 187 253 213 288 15 19 72 96 126 170 55 74 108 146 119 160 25 33 276
372 392 530 51 69 136 184 190 256 l98 132 321 0 c176 0 323 2 326 5 9 10 8
129 -2 137 -5 4 -373 7 -817 7 l-807 0 -3 -73 -3 -74 35 -1 c19 0 203 0 408 0
204 -1 372 -4 372 -8 0 -3 -51 -74 -112 -158 -287 -385 -553 -743 -738 -993
-10 -14 -70 -93 -132 -177 -62 -83 -171 -231 -243 -328 -71 -98 -135 -182
-141 -189 -5 -6 -30 -38 -54 -71 -56 -76 -382 -516 -424 -572 -17 -23 -39 -52
-48 -65 -14 -18 -268 -361 -320 -430 -7 -10 -71 -96 -143 -193 -111 -149 -134
-175 -156 -175 -17 0 -28 6 -31 18 -2 9 -4 764 -3 1677 l0 1660 320 2 c176 1
345 2 375 2 l56 1 -1 73 0 72 -1343 1 -1342 1 0 -73z"/>
</g>
</svg>
